<svg version="1.1" id="Layer_1" xmlns="http://www.w3.org/2000/svg" xmlns:xlink="http://www.w3.org/1999/xlink" x="0px" y="0px"
	 width="100%" viewBox="0 0 240 192" enable-background="new 0 0 240 192" xml:space="preserve">
<path fill="#000000" opacity="1.000000" stroke="none" 
	d="
M172.403946,139.282227 
	C171.580460,141.342606 171.013824,143.099884 170.187271,144.724945 
	C168.851791,147.350571 167.082108,149.802963 163.685303,149.019302 
	C161.072769,148.416565 158.378494,147.011200 157.961685,144.091232 
	C157.483521,140.741348 160.017059,139.067474 162.853882,138.044327 
	C165.065552,137.246628 167.585220,135.601746 166.467941,133.526169 
	C163.829849,128.625351 164.855118,121.512718 158.036194,119.014046 
	C156.520691,118.458710 155.189362,117.400749 153.686172,116.523399 
	C146.113358,124.612381 140.352005,133.066910 144.287094,144.852966 
	C132.839600,150.971832 121.418427,151.113235 109.787865,146.084366 
	C108.304092,145.442780 108.111221,144.510345 108.271095,142.925827 
	C109.482635,130.917664 107.987694,127.015709 98.925667,117.317322 
	C88.802864,117.588135 88.626854,126.559273 85.576332,132.738876 
	C84.102974,135.723526 87.165771,137.312592 89.792763,138.364563 
	C92.238113,139.343811 94.326294,140.880295 94.110008,143.819214 
	C93.912575,146.501892 91.489830,147.587143 89.471970,148.613495 
	C86.231667,150.261642 84.110283,148.324097 82.411110,145.793488 
	C71.931000,130.185211 74.126305,115.790192 88.833122,103.520599 
	C89.339531,103.098114 89.904663,102.696083 90.274422,102.167084 
	C98.556221,90.318443 101.199203,89.343857 115.609482,93.009094 
	C118.148880,89.988937 117.641594,86.914642 116.198685,83.450722 
	C113.305550,76.505295 116.394928,67.209290 122.064064,64.882957 
	C127.860931,62.504211 133.841507,65.182495 135.429718,71.274124 
	C136.627853,75.869553 137.779434,80.647163 135.191757,85.257614 
	C133.657120,87.991859 135.197388,90.342155 136.125107,93.296204 
	C142.073608,91.223602 148.036911,89.650742 153.931107,93.030045 
	C154.940170,93.608566 156.390640,93.907898 156.910797,94.772980 
	C162.387314,103.880783 172.126282,109.825386 175.410095,120.663582 
	C177.481415,127.499985 174.639999,133.025330 172.403946,139.282227 
z"/>
<path fill="#000000" opacity="1.000000" stroke="none" 
	d="
M164.935150,66.040283 
	C191.864502,89.427139 189.187027,128.874115 172.069305,146.251221 
	C172.033844,141.968262 173.940018,138.592682 175.400925,135.220184 
	C177.414398,130.572098 178.156952,126.022675 176.497314,121.176933 
	C176.003586,119.735344 176.015366,118.290207 176.213303,116.755188 
	C180.193466,85.889450 155.697189,59.057713 124.460472,60.014988 
	C94.361847,60.937382 71.863556,87.238113 75.859100,116.831139 
	C75.925766,117.324898 76.204796,117.902969 76.040283,118.298370 
	C72.279686,127.336800 76.789696,135.161285 79.647072,143.227859 
	C79.919327,143.996460 80.353561,144.750000 79.847107,145.584656 
	C71.780472,140.396637 65.641617,119.650894 66.842010,107.183395 
	C69.142021,83.294937 80.626076,65.399307 102.953346,56.154675 
	C125.066399,46.998737 146.012711,50.337013 164.935150,66.040283 
z"/>
</svg>